<svg xmlns="http://www.w3.org/2000/svg" xmlns:xlink="http://www.w3.org/1999/xlink" width="17px" height="22px">
    <path d="M16.983,21.514 C16.983,21.838 16.812,21.983 16.487,21.977 C16.354,21.974 16.221,21.981 16.088,21.981 C11.037,21.981 5.987,21.983 0.936,21.975 C0.647,21.975 0.226,22.123 0.110,21.761 C-0.046,21.272 -0.061,20.729 0.134,20.241 C0.233,19.994 0.567,20.085 0.802,20.084 C3.372,20.079 5.941,20.081 8.511,20.081 C11.059,20.081 13.606,20.097 16.154,20.070 C16.776,20.063 17.074,20.232 16.993,20.868 C16.966,21.080 16.982,21.298 16.983,21.514 ZM14.823,12.609 C12.892,14.512 10.930,16.384 8.999,18.287 C8.640,18.640 8.408,18.667 8.033,18.297 C5.916,16.210 3.781,14.140 1.637,12.079 C1.307,11.762 1.312,11.559 1.636,11.239 C2.626,10.262 2.615,10.248 3.617,11.227 C4.850,12.430 6.081,13.635 7.324,14.851 C7.601,14.573 7.499,14.302 7.499,14.061 C7.506,9.683 7.502,5.306 7.510,0.929 C7.511,0.627 7.368,0.181 7.780,0.086 C8.287,-0.030 8.857,-0.085 9.346,0.134 C9.621,0.258 9.516,0.642 9.516,0.915 C9.520,5.271 9.519,9.627 9.519,13.982 C9.519,14.238 9.519,14.494 9.519,14.750 C9.611,14.810 9.704,14.871 9.797,14.931 C10.260,14.416 10.702,13.881 11.190,13.390 C12.099,12.475 13.047,11.597 13.952,10.680 C14.276,10.353 14.495,10.354 14.812,10.682 C15.983,11.891 15.956,11.492 14.823,12.609 Z"/>
</svg>