<svg xmlns="http://www.w3.org/2000/svg" xmlns:xlink="http://www.w3.org/1999/xlink" width="84px" height="38px">
    <path d="M81.761,19.304 C80.315,19.304 79.525,18.448 79.525,16.949 L79.525,12.078 C79.525,10.579 80.315,9.723 81.761,9.723 C83.207,9.723 83.997,10.579 83.997,12.078 L83.997,16.949 C83.997,18.448 83.207,19.304 81.761,19.304 ZM82.524,11.984 C82.524,11.315 82.230,11.061 81.761,11.061 C81.293,11.061 80.998,11.315 80.998,11.984 L80.998,17.042 C80.998,17.712 81.293,17.966 81.761,17.966 C82.230,17.966 82.524,17.712 82.524,17.042 L82.524,11.984 ZM77.454,27.708 C76.292,27.708 75.657,27.031 75.657,25.846 L75.657,21.998 C75.657,20.813 76.292,20.136 77.454,20.136 C78.616,20.136 79.250,20.813 79.250,21.998 L79.250,25.846 C79.250,27.031 78.616,27.708 77.454,27.708 ZM78.067,21.923 C78.067,21.394 77.830,21.194 77.454,21.194 C77.077,21.194 76.840,21.394 76.840,21.923 L76.840,25.920 C76.840,26.449 77.077,26.650 77.454,26.650 C77.830,26.650 78.067,26.449 78.067,25.920 L78.067,21.923 ZM77.102,9.830 L78.575,9.830 L78.575,19.197 L77.102,19.197 L77.102,9.830 ZM73.969,19.197 L71.640,19.197 L71.640,9.830 L73.969,9.830 C75.442,9.830 76.165,10.646 76.165,12.145 L76.165,16.882 C76.165,18.381 75.442,19.197 73.969,19.197 ZM74.692,12.078 C74.692,11.409 74.411,11.168 73.943,11.168 L73.112,11.168 L73.112,17.858 L73.943,17.858 C74.411,17.858 74.692,17.618 74.692,16.949 L74.692,12.078 ZM68.439,19.317 C66.994,19.317 66.243,18.461 66.243,16.962 L66.243,9.830 L67.716,9.830 L67.716,17.056 C67.716,17.725 68.011,17.966 68.480,17.966 C68.948,17.966 69.243,17.725 69.243,17.056 L69.243,9.830 L70.635,9.830 L70.635,16.962 C70.635,18.461 69.885,19.317 68.439,19.317 ZM66.580,26.650 C66.956,26.650 67.193,26.460 67.193,25.931 L67.193,20.221 L68.312,20.221 L68.312,25.857 C68.312,27.041 67.710,27.718 66.548,27.718 C65.386,27.718 64.783,27.041 64.783,25.857 L64.783,20.221 L65.967,20.221 L65.967,25.931 C65.967,26.460 66.203,26.650 66.580,26.650 ZM64.128,19.197 L62.655,19.197 L62.655,11.168 L61.115,11.168 L61.115,9.830 L65.667,9.830 L65.667,11.168 L64.128,11.168 L64.128,19.197 ZM58.505,19.304 C57.058,19.304 56.309,18.448 56.309,16.949 L56.309,16.374 L57.701,16.374 L57.701,17.042 C57.701,17.712 57.995,17.952 58.464,17.952 C58.933,17.952 59.227,17.712 59.227,17.042 C59.227,15.115 56.349,14.754 56.349,12.078 C56.349,10.579 57.085,9.723 58.518,9.723 C59.950,9.723 60.687,10.579 60.687,12.078 L60.687,12.372 L59.294,12.372 L59.294,11.984 C59.294,11.315 59.026,11.061 58.558,11.061 C58.089,11.061 57.822,11.315 57.822,11.984 C57.822,13.911 60.700,14.272 60.700,16.949 C60.700,18.448 59.950,19.304 58.505,19.304 ZM58.073,21.278 L56.029,21.278 L56.029,23.340 L57.653,23.340 L57.653,24.398 L56.029,24.398 L56.029,26.565 L58.073,26.565 L58.073,27.623 L54.846,27.623 L54.846,20.221 L58.073,20.221 L58.073,21.278 ZM51.845,27.623 L51.415,23.679 L50.985,27.623 L49.360,27.623 L48.521,20.221 L49.672,20.221 L50.307,26.058 L50.877,20.221 L52.018,20.221 L52.609,26.101 L53.222,20.221 L54.255,20.221 L53.416,27.623 L51.845,27.623 ZM51.341,19.197 L49.024,19.197 L49.024,9.830 L51.247,9.830 C52.773,9.830 53.430,10.539 53.430,11.984 L53.430,12.319 C53.430,13.282 53.135,13.898 52.479,14.206 C53.269,14.513 53.577,15.223 53.577,16.213 L53.577,16.976 C53.577,18.421 52.814,19.197 51.341,19.197 ZM51.957,12.131 C51.957,11.462 51.729,11.168 51.207,11.168 L50.497,11.168 L50.497,13.643 L51.073,13.643 C51.622,13.643 51.957,13.402 51.957,12.653 L51.957,12.131 ZM52.104,16.119 C52.104,15.249 51.823,14.982 51.153,14.982 L50.497,14.982 L50.497,17.858 L51.341,17.858 C51.836,17.858 52.104,17.632 52.104,16.935 L52.104,16.119 ZM47.004,26.280 L45.552,26.280 L45.348,27.623 L44.261,27.623 L45.466,20.221 L47.198,20.221 L48.403,27.623 L47.209,27.623 L47.004,26.280 ZM46.273,21.532 L45.703,25.275 L46.843,25.275 L46.273,21.532 ZM44.097,9.830 L48.114,9.830 L48.114,11.168 L45.570,11.168 L45.570,13.777 L47.592,13.777 L47.592,15.115 L45.570,15.115 L45.570,17.858 L48.114,17.858 L48.114,19.197 L44.097,19.197 L44.097,9.830 ZM42.616,26.714 L42.616,25.550 C42.616,24.863 42.380,24.609 41.842,24.609 L41.433,24.609 L41.433,27.623 L40.250,27.623 L40.250,20.221 L42.035,20.221 C43.262,20.221 43.789,20.781 43.789,21.923 L43.789,22.505 C43.789,23.266 43.542,23.763 43.014,24.006 C43.606,24.250 43.800,24.810 43.800,25.582 L43.800,26.724 C43.800,27.083 43.811,27.348 43.929,27.623 L42.724,27.623 C42.659,27.433 42.616,27.316 42.616,26.714 ZM42.606,22.040 C42.606,21.511 42.423,21.278 42.003,21.278 L41.433,21.278 L41.433,23.552 L41.896,23.552 C42.337,23.552 42.606,23.361 42.606,22.769 L42.606,22.040 ZM40.362,19.197 L39.826,14.206 L39.290,19.197 L37.269,19.197 L36.224,9.830 L37.657,9.830 L38.447,17.216 L39.156,9.830 L40.576,9.830 L41.312,17.270 L42.076,9.830 L43.361,9.830 L42.316,19.197 L40.362,19.197 ZM39.701,22.050 L39.701,23.013 C39.701,24.197 39.121,24.842 37.937,24.842 L37.378,24.842 L37.378,27.623 L36.195,27.623 L36.195,20.221 L37.937,20.221 C39.121,20.221 39.701,20.866 39.701,22.050 ZM37.378,23.784 L37.937,23.784 C38.314,23.784 38.518,23.615 38.518,23.087 L38.518,21.976 C38.518,21.447 38.314,21.278 37.937,21.278 L37.378,21.278 L37.378,23.784 ZM33.223,28.389 C33.223,28.528 33.187,28.608 33.060,28.681 C30.272,30.264 27.488,31.852 24.704,33.439 C22.068,34.942 19.432,36.445 16.796,37.950 C16.713,37.997 16.648,38.018 16.552,37.965 C14.798,36.979 13.043,35.997 11.286,35.017 C11.192,34.964 11.155,34.905 11.155,34.797 C11.160,32.901 11.160,31.004 11.162,29.108 C11.162,28.939 11.175,28.932 11.323,29.016 C13.062,30.002 14.802,30.987 16.538,31.977 C16.665,32.049 16.757,32.048 16.885,31.976 C19.502,30.491 22.122,29.011 24.742,27.530 C25.821,26.920 26.900,26.308 27.981,25.700 C28.067,25.652 28.103,25.597 28.100,25.499 C28.094,25.282 28.098,25.064 28.099,24.847 C28.120,20.799 28.115,16.751 28.120,12.703 C28.120,12.580 28.084,12.511 27.974,12.453 C26.777,11.825 25.614,11.138 24.436,10.475 C22.376,9.313 20.318,8.147 18.259,6.982 C17.784,6.714 17.308,6.447 16.836,6.174 C16.746,6.123 16.676,6.125 16.588,6.174 C14.123,7.564 11.657,8.952 9.190,10.339 C8.135,10.933 7.080,11.526 6.024,12.118 C5.670,12.316 5.666,12.316 5.672,12.723 C5.707,14.955 5.677,17.188 5.701,19.421 C5.724,21.555 5.701,23.690 5.728,25.824 C5.745,27.248 5.736,28.670 5.737,30.093 C5.738,30.647 5.728,31.201 5.722,31.755 C5.720,31.899 5.710,31.905 5.579,31.832 C3.814,30.858 2.050,29.884 0.282,28.914 C0.149,28.841 0.102,28.760 0.100,28.607 C0.075,26.681 0.096,24.755 0.073,22.829 C0.053,21.150 0.073,19.472 0.049,17.793 C0.024,16.012 0.046,14.230 0.022,12.450 C0.009,11.478 0.016,10.507 0.001,9.536 C-0.001,9.405 0.038,9.330 0.155,9.264 C1.740,8.378 3.322,7.487 4.904,6.597 C6.910,5.468 8.915,4.339 10.921,3.211 C12.805,2.151 14.689,1.093 16.571,0.032 C16.660,-0.018 16.729,-0.019 16.817,0.031 C19.161,1.360 21.505,2.687 23.849,4.013 C26.802,5.684 29.756,7.353 32.709,9.023 C32.846,9.100 32.982,9.181 33.120,9.256 C33.192,9.295 33.227,9.349 33.221,9.431 C33.218,9.478 33.221,9.524 33.221,9.571 C33.221,12.699 33.221,15.827 33.221,18.954 C33.221,22.100 33.220,25.244 33.223,28.389 ZM18.950,22.924 C18.950,22.924 19.061,24.503 18.285,25.620 C17.462,26.804 15.749,27.530 15.749,27.530 L14.650,25.280 C14.650,25.280 15.664,25.140 16.650,24.676 C17.880,24.098 18.950,22.924 18.950,22.924 ZM15.654,14.943 C18.333,13.066 21.833,12.880 22.301,12.864 L22.328,12.836 C22.328,12.836 22.328,12.845 22.328,12.863 C22.345,12.862 22.354,12.862 22.354,12.862 C22.354,12.862 22.345,12.878 22.328,12.908 C22.323,13.458 22.222,17.062 20.456,19.748 C18.885,22.138 15.296,23.946 15.296,23.946 L13.533,22.067 L13.537,22.064 L11.586,20.260 C11.586,20.260 13.296,16.596 15.654,14.943 ZM19.204,19.859 C21.225,17.486 21.697,14.498 21.697,14.498 C21.697,14.498 20.986,16.914 19.064,19.171 C17.245,21.306 14.556,22.251 14.556,22.251 C14.556,22.251 17.510,21.847 19.204,19.859 ZM12.532,16.258 C12.532,16.258 11.401,17.373 10.871,18.624 C10.446,19.627 10.345,20.645 10.345,20.645 L8.053,19.635 C8.053,19.635 8.711,17.896 9.863,17.028 C10.950,16.209 12.532,16.258 12.532,16.258 ZM62.343,21.923 L62.343,22.188 C62.343,22.949 62.106,23.435 61.579,23.679 C62.214,23.922 62.461,24.482 62.461,25.265 L62.461,25.868 C62.461,27.010 61.848,27.623 60.665,27.623 L58.804,27.623 L58.804,20.221 L60.589,20.221 C61.816,20.221 62.343,20.781 62.343,21.923 ZM59.987,26.565 L60.665,26.565 C61.063,26.565 61.278,26.386 61.278,25.836 L61.278,25.191 C61.278,24.503 61.052,24.292 60.514,24.292 L59.987,24.292 L59.987,26.565 ZM59.987,21.278 L59.987,23.235 L60.450,23.235 C60.891,23.235 61.160,23.044 61.160,22.452 L61.160,22.040 C61.160,21.511 60.977,21.278 60.557,21.278 L59.987,21.278 ZM71.807,24.651 L71.807,20.221 L72.861,20.221 L72.861,27.623 L71.646,27.623 L70.172,22.262 L70.172,27.623 L69.107,27.623 L69.107,20.221 L70.592,20.221 L71.807,24.651 ZM74.894,27.623 L73.710,27.623 L73.710,20.221 L74.894,20.221 L74.894,27.623 ZM82.702,24.651 L82.702,20.221 L83.757,20.221 L83.757,27.623 L82.541,27.623 L81.067,22.262 L81.067,27.623 L80.002,27.623 L80.002,20.221 L81.487,20.221 L82.702,24.651 Z"/>
</svg>