<svg xmlns="http://www.w3.org/2000/svg" xmlns:xlink="http://www.w3.org/1999/xlink" width="33px" height="13px" viewBox="0 0 33 13">
    <path d="M0.000,-0.003 L0.000,10.061 C0.387,10.250 0.704,10.626 1.028,10.921 C1.614,11.456 2.163,12.037 2.708,12.618 C3.190,13.132 3.620,13.124 4.092,12.596 C4.704,11.912 5.369,11.280 5.968,10.584 C6.465,10.006 6.942,9.990 7.468,10.492 C8.128,11.123 8.796,11.747 9.433,12.404 C9.922,12.908 10.361,12.916 10.827,12.392 C11.464,11.677 12.148,11.004 12.737,10.249 C13.174,9.692 13.506,9.711 13.975,10.174 C14.682,10.871 15.452,11.500 16.151,12.205 C16.610,12.670 16.957,12.723 17.405,12.195 C17.999,11.495 18.681,10.876 19.266,10.169 C19.847,9.467 20.323,9.529 20.893,10.178 C21.392,10.746 21.972,11.235 22.501,11.776 C23.176,12.467 23.779,12.566 24.434,11.706 C24.917,11.072 25.534,10.552 26.047,9.941 C26.588,9.295 27.053,9.334 27.594,9.941 C28.098,10.506 28.676,10.998 29.189,11.555 C29.928,12.358 30.569,12.289 31.207,11.421 C31.610,10.874 32.087,10.385 32.490,9.839 C32.663,9.604 32.832,9.429 33.001,9.317 L33.001,-0.003 L0.000,-0.003 Z"/>
</svg>