<svg xmlns="http://www.w3.org/2000/svg" xmlns:xlink="http://www.w3.org/1999/xlink" width="29px" height="32px" viewBox="0 0 29 32">
    <path d="M27.785,11.317 C27.569,11.357 27.488,11.458 27.488,11.660 C27.489,11.753 27.485,11.847 27.485,11.941 C27.485,15.293 27.485,18.645 27.486,21.997 C27.486,22.304 27.426,22.621 27.879,22.713 C28.098,22.757 27.982,23.004 27.974,23.166 C27.938,23.884 28.051,23.929 27.159,23.913 C26.157,23.896 25.155,23.875 24.152,23.864 C23.743,23.860 23.549,23.686 23.589,23.262 C23.603,23.109 23.566,22.950 23.551,22.795 C23.538,22.659 23.562,22.502 23.710,22.501 C24.251,22.498 24.184,22.117 24.184,21.778 C24.185,17.596 24.185,13.415 24.184,9.233 C24.184,6.617 24.181,4.002 24.183,1.386 C24.183,1.168 24.216,0.949 24.237,0.731 C24.282,0.259 24.572,0.032 25.017,0.015 C25.565,-0.006 26.114,-0.005 26.662,0.013 C27.199,0.030 27.465,0.299 27.479,0.838 C27.495,1.417 27.483,1.997 27.483,2.577 C27.484,2.577 27.485,2.577 27.486,2.577 C27.486,3.141 27.494,3.704 27.483,4.268 C27.477,4.551 27.565,4.679 27.873,4.721 C28.610,4.823 28.989,5.285 28.993,6.041 C29.000,7.326 29.000,8.610 28.993,9.894 C28.989,10.798 28.690,11.151 27.785,11.317 ZM22.961,15.010 C22.960,15.778 22.715,16.013 21.942,16.018 C21.503,16.021 21.064,16.026 20.626,16.019 C19.921,16.008 19.660,15.748 19.659,15.050 C19.655,12.591 19.655,10.132 19.655,7.673 C19.655,5.496 19.656,3.318 19.660,1.141 C19.662,0.223 19.881,0.008 20.796,0.006 C21.188,0.005 21.580,-0.002 21.971,0.003 C22.689,0.014 22.961,0.285 22.963,1.008 C22.968,2.872 22.966,4.736 22.966,6.599 C22.966,7.085 22.966,7.571 22.966,8.056 C22.965,8.056 22.964,8.056 22.963,8.056 C22.963,10.374 22.965,12.692 22.961,15.010 ZM16.937,16.022 C16.655,16.020 16.373,16.021 16.091,16.018 C15.383,16.011 15.141,15.773 15.138,15.048 C15.132,13.452 15.135,11.855 15.134,10.259 C15.134,9.508 15.134,8.757 15.134,8.005 C15.134,8.005 15.133,8.005 15.133,8.005 C15.133,5.736 15.134,3.467 15.132,1.197 C15.131,0.219 15.345,-0.001 16.306,0.002 C16.682,0.003 17.058,0.003 17.434,0.006 C18.126,0.014 18.406,0.263 18.426,0.967 C18.452,1.843 18.440,2.720 18.440,3.596 C18.441,7.227 18.436,10.858 18.443,14.489 C18.446,15.876 18.308,16.030 16.937,16.022 ZM12.967,16.018 C12.513,16.022 12.059,16.021 11.605,16.021 C10.854,16.021 10.615,15.791 10.614,15.045 C10.612,12.698 10.613,10.350 10.613,8.003 C10.615,8.003 10.616,8.003 10.617,8.003 C10.617,5.687 10.616,3.371 10.617,1.056 C10.618,0.227 10.839,0.011 11.682,0.006 C12.121,0.004 12.559,-0.004 12.997,0.010 C13.595,0.029 13.855,0.292 13.856,0.882 C13.859,5.639 13.859,10.396 13.857,15.153 C13.856,15.793 13.624,16.013 12.967,16.018 ZM9.337,14.979 C9.336,15.792 9.112,16.015 8.311,16.018 C7.841,16.020 7.371,16.026 6.901,16.015 C6.345,16.002 6.133,15.807 6.093,15.260 C5.969,13.557 6.049,11.850 6.039,10.145 C6.022,7.171 6.038,4.197 6.040,1.223 C6.040,0.234 6.272,0.001 7.253,0.005 C7.597,0.006 7.942,0.005 8.287,0.005 C9.083,0.006 9.337,0.245 9.339,1.032 C9.344,3.051 9.340,5.071 9.340,7.090 C9.340,7.403 9.340,7.716 9.340,8.029 C9.339,8.029 9.338,8.029 9.338,8.029 C9.338,10.345 9.340,12.662 9.337,14.979 ZM3.698,16.021 C3.291,16.019 2.884,16.021 2.476,16.018 C1.798,16.013 1.530,15.772 1.518,15.090 C1.500,14.041 1.498,12.992 1.520,11.943 C1.528,11.537 1.460,11.324 0.981,11.281 C0.416,11.230 0.022,10.726 0.014,10.122 C-0.004,8.745 -0.006,7.366 0.013,5.988 C0.024,5.264 0.381,4.848 1.100,4.733 C1.461,4.675 1.518,4.501 1.516,4.197 C1.506,3.148 1.506,2.098 1.515,1.049 C1.521,0.263 1.779,0.014 2.562,0.006 C2.954,0.003 3.346,0.004 3.737,0.006 C4.565,0.011 4.810,0.244 4.814,1.060 C4.820,2.689 4.818,4.318 4.819,5.946 C4.819,6.651 4.819,7.355 4.819,8.060 C4.819,10.347 4.818,12.633 4.820,14.919 C4.820,15.789 4.583,16.025 3.698,16.021 ZM23.970,24.717 C24.189,24.724 24.408,24.719 24.627,24.719 C25.638,24.837 26.657,24.785 27.670,24.869 C28.018,24.899 28.164,25.028 28.150,25.392 C28.072,27.406 28.008,29.421 27.941,31.436 C27.932,31.710 27.827,31.879 27.527,31.890 C26.684,31.922 25.840,31.955 24.998,32.001 C24.686,32.017 24.547,31.896 24.512,31.582 C24.448,31.009 24.354,30.438 24.269,29.867 C24.225,29.574 24.327,29.413 24.643,29.428 C24.784,29.434 24.925,29.431 25.065,29.432 C25.717,29.438 25.988,29.027 25.744,28.414 C25.679,28.251 25.541,28.227 25.407,28.203 C25.069,28.142 24.729,28.084 24.388,28.044 C24.132,28.014 24.002,27.901 23.969,27.635 C23.867,26.798 23.752,25.962 23.630,25.128 C23.590,24.848 23.675,24.709 23.970,24.717 Z"/>
</svg>