<svg xmlns="http://www.w3.org/2000/svg" width="35" height="31" viewBox="0 0 35 31">
  <path d="M13.467,7.291c-1.145-.247-2.2-0.475-3.258-0.7a0.443,0.443,0,0,0-.406.186,1.946,1.946,0,0,1-3.384-.839,0.576,0.576,0,0,0-.4-0.375C4.628,5,3.242,4.419,1.845,3.873a0.506,0.506,0,0,1-.4-0.714c0.171-.6.288-1.209,0.4-1.819A0.415,0.415,0,0,1,2.357.95c1.5,0.078,3,.136,4.5.217A0.621,0.621,0,0,0,7.483.891,1.9,1.9,0,0,1,9.524.047a1.872,1.872,0,0,1,1.5,1.524,0.532,0.532,0,0,0,.474.465c2.987,0.638,5.975,1.272,8.955,1.941A41.623,41.623,0,0,1,26.08,5.317a12.918,12.918,0,0,1,8.663,10.152,12.393,12.393,0,0,1-3.713,11.65,12.739,12.739,0,0,1-10.315,3.834A12.816,12.816,0,0,1,9.458,23.085a12.932,12.932,0,0,1,3.7-15.531C13.239,7.49,13.315,7.422,13.467,7.291Zm17.51,10.467A9.222,9.222,0,0,0,21.6,8.516a9.264,9.264,0,1,0-.005,18.529A9.228,9.228,0,0,0,30.977,17.758ZM3.126,1.874a0.405,0.405,0,0,0-.59.4,2.778,2.778,0,0,1-.112.531,0.33,0.33,0,0,0,.257.466q1.742,0.7,3.476,1.415c0.218,0.09.322,0.083,0.375-.174,0.148-.722.313-1.44,0.478-2.158,0.06-.26-0.037-0.344-0.3-0.351C5.5,1.967,4.288,1.917,3.126,1.874ZM1.8,22.91A1.585,1.585,0,0,1,.044,20.861,8.2,8.2,0,0,1,1.4,17.836a1.106,1.106,0,0,1,1.042-.247,0.114,0.114,0,0,1,.047.19,0.467,0.467,0,0,0,.077.6,6.584,6.584,0,0,1,.988,2.671A1.533,1.533,0,0,1,1.8,22.91Zm1.843-7.552a1.491,1.491,0,0,1-1.409,1.614,2.663,2.663,0,0,1-1.161-.091A1.437,1.437,0,0,1,.063,15.544,3,3,0,0,1,.21,14.4a11.174,11.174,0,0,1,1.412-2.754c0.173-.26.3-0.318,0.5-0.011a9.255,9.255,0,0,1,1.463,3.187C3.616,15,3.623,15.179,3.643,15.358Zm-3.514-6a3,3,0,0,1,.19-1.174A11.875,11.875,0,0,1,1.733,5.561c0.122-.174.218-0.25,0.367-0.024A8.745,8.745,0,0,1,3.665,9.01a1.628,1.628,0,0,1-1.934,1.967A2.077,2.077,0,0,1,.8,10.726,1.419,1.419,0,0,1,.129,9.362ZM21.607,24.8a7.032,7.032,0,1,1,7.116-7.422A7.071,7.071,0,0,1,21.607,24.8Zm0-10.079a3.023,3.023,0,0,0-3.075,3.018,3.053,3.053,0,0,0,3.074,3.107A3.063,3.063,0,1,0,21.608,14.72Z"/>
</svg>
