<svg xmlns="http://www.w3.org/2000/svg" xmlns:xlink="http://www.w3.org/1999/xlink" width="24px" height="38px">
    <path d="M12.918,18.853 C12.748,18.745 12.553,18.663 12.413,18.525 C8.707,14.882 5.005,11.234 1.305,7.586 C-0.439,5.867 -0.443,3.800 1.291,2.087 C1.599,1.783 1.907,1.478 2.217,1.175 C3.825,-0.393 5.984,-0.406 7.588,1.166 C10.562,4.081 13.523,7.009 16.490,9.931 C18.566,11.977 20.644,14.021 22.719,16.068 C24.420,17.747 24.414,20.217 22.705,21.901 C17.698,26.835 12.691,31.768 7.682,36.701 C5.965,38.392 3.849,38.392 2.134,36.705 C1.813,36.390 1.492,36.075 1.173,35.758 C-0.394,34.200 -0.400,32.056 1.169,30.508 C4.905,26.823 8.644,23.142 12.384,19.463 C12.526,19.323 12.697,19.212 12.854,19.088 C12.876,19.010 12.897,18.931 12.918,18.853 Z"/>
</svg>