<svg xmlns="http://www.w3.org/2000/svg" xmlns:xlink="http://www.w3.org/1999/xlink" width="24px" height="38px">
    <path d="M11.082,19.132 C11.252,19.240 11.447,19.322 11.587,19.459 C15.293,23.105 18.995,26.757 22.695,30.408 C24.439,32.129 24.443,34.197 22.709,35.912 C22.401,36.216 22.093,36.521 21.783,36.824 C20.175,38.393 18.016,38.407 16.412,36.833 C13.438,33.915 10.477,30.986 7.510,28.061 C5.434,26.014 3.356,23.968 1.281,21.918 C-0.420,20.239 -0.414,17.767 1.295,16.081 C6.302,11.143 11.309,6.206 16.318,1.269 C18.035,-0.424 20.151,-0.424 21.866,1.265 C22.187,1.580 22.508,1.895 22.827,2.212 C24.394,3.772 24.400,5.918 22.831,7.467 C19.095,11.155 15.356,14.839 11.616,18.521 C11.474,18.661 11.303,18.772 11.146,18.896 C11.124,18.975 11.103,19.053 11.082,19.132 Z"/>
</svg>