<svg xmlns="http://www.w3.org/2000/svg" xmlns:xlink="http://www.w3.org/1999/xlink" width="19px" height="20px">
    <path d="M18.992,10.033 C18.992,15.402 15.230,19.615 10.178,19.973 C8.269,20.109 6.505,19.704 4.855,18.719 C4.476,18.492 4.140,18.442 3.732,18.597 C2.961,18.890 2.178,19.145 1.399,19.412 C0.862,19.596 0.714,19.395 0.893,18.848 C1.118,18.163 1.302,17.462 1.556,16.790 C1.781,16.194 1.709,15.714 1.402,15.145 C-0.417,11.767 -0.495,8.313 1.374,4.959 C3.224,1.642 6.093,-0.030 9.736,0.003 C14.945,0.051 18.993,4.495 18.992,10.033 ZM4.211,7.389 C4.210,7.758 4.236,8.119 4.377,8.458 C5.918,12.159 8.441,14.656 12.262,15.479 C13.221,15.686 14.093,15.249 14.750,14.486 C15.425,13.701 15.237,12.796 14.355,12.322 C14.143,12.208 13.931,12.095 13.717,11.986 C12.550,11.390 12.524,11.368 11.727,12.427 C11.320,12.969 10.943,13.031 10.370,12.742 C9.021,12.063 7.935,11.101 7.153,9.749 C6.913,9.335 6.863,8.956 7.214,8.622 C7.889,7.980 7.834,7.287 7.436,6.520 C7.247,6.156 7.133,5.748 6.963,5.372 C6.625,4.622 5.910,4.454 5.278,4.976 C4.537,5.589 4.280,6.445 4.211,7.389 Z"/>
</svg>