<svg xmlns="http://www.w3.org/2000/svg" xmlns:xlink="http://www.w3.org/1999/xlink" width="21px" height="21px">
    <path d="M10.365,0.004 C12.533,0.009 14.510,0.239 16.455,0.781 C18.576,1.373 19.915,2.699 20.478,4.781 C21.201,7.455 21.128,10.143 20.432,12.803 C19.906,14.814 18.498,16.025 16.501,16.578 C14.212,17.211 11.870,17.424 9.500,17.332 C9.032,17.313 8.732,17.489 8.437,17.810 C7.571,18.752 6.690,19.680 5.801,20.601 C5.603,20.806 5.387,21.112 5.045,20.947 C4.758,20.808 4.819,20.478 4.818,20.213 C4.811,19.293 4.804,18.373 4.822,17.453 C4.832,16.985 4.664,16.700 4.194,16.545 C1.829,15.766 0.637,14.016 0.225,11.699 C-0.120,9.765 -0.053,7.809 0.273,5.880 C0.822,2.628 2.643,0.968 6.264,0.344 C7.670,0.102 9.087,-0.061 10.365,0.004 ZM16.512,13.015 C16.514,12.756 16.425,12.533 16.224,12.367 C15.506,11.774 14.743,11.243 13.881,10.878 C13.379,10.665 12.894,10.771 12.549,11.211 C11.986,11.930 11.302,11.880 10.559,11.563 C9.141,10.956 8.115,9.956 7.413,8.599 C7.069,7.934 7.119,7.426 7.786,7.007 C8.422,6.607 8.481,6.067 8.067,5.479 C7.724,4.991 7.376,4.501 6.979,4.057 C6.236,3.226 5.877,3.150 5.161,3.580 C3.890,4.345 3.487,5.031 3.872,5.971 C5.734,10.520 9.200,13.348 13.841,14.862 C14.853,15.193 16.517,13.984 16.512,13.015 ZM10.915,2.674 C10.708,2.739 10.289,2.516 10.276,2.904 C10.267,3.194 10.671,3.086 10.897,3.133 C11.084,3.172 11.277,3.184 11.466,3.220 C14.433,3.768 15.985,5.355 16.424,8.288 C16.444,8.422 16.466,8.557 16.504,8.686 C16.548,8.838 16.584,9.031 16.804,8.995 C16.969,8.967 16.985,8.802 16.984,8.669 C16.983,8.399 16.988,8.125 16.947,7.859 C16.513,4.988 13.892,2.729 10.915,2.674 ZM11.261,4.241 C11.131,4.249 10.821,4.129 10.779,4.405 C10.736,4.684 11.059,4.665 11.264,4.704 C11.451,4.739 11.643,4.758 11.828,4.802 C13.539,5.211 14.490,6.226 14.738,7.887 C14.774,8.128 14.678,8.540 15.083,8.481 C15.430,8.431 15.327,8.051 15.296,7.796 C15.051,5.825 13.432,4.377 11.261,4.241 Z"/>
</svg>