<svg xmlns="http://www.w3.org/2000/svg" xmlns:xlink="http://www.w3.org/1999/xlink" width="15px" height="15px">
    <path d="M7.487,15.007 C5.979,15.007 4.472,15.011 2.965,15.006 C1.564,15.003 0.426,14.144 0.089,12.827 C0.028,12.587 0.002,12.332 0.001,12.083 C-0.005,9.036 -0.005,5.988 -0.002,2.940 C0.000,1.449 1.016,0.268 2.489,0.035 C2.648,0.009 2.811,0.008 2.973,0.007 C5.987,0.006 9.001,0.004 12.015,0.007 C13.452,0.008 14.599,0.898 14.918,2.260 C14.971,2.485 14.995,2.723 14.995,2.956 C15.001,5.987 15.001,9.018 14.998,12.049 C14.996,13.556 13.979,14.745 12.492,14.980 C12.317,15.008 12.136,15.006 11.958,15.006 C10.467,15.008 8.977,15.008 7.487,15.007 ZM1.462,5.983 C1.462,6.058 1.462,6.113 1.462,6.169 C1.462,8.123 1.461,10.076 1.462,12.030 C1.463,12.937 2.065,13.543 2.972,13.544 C5.986,13.546 9.000,13.546 12.014,13.544 C12.925,13.543 13.532,12.929 13.532,12.016 C13.533,10.068 13.533,8.120 13.533,6.171 C13.533,6.111 13.533,6.051 13.533,5.990 C12.785,5.990 12.054,5.990 11.366,5.990 C11.442,6.447 11.538,6.893 11.585,7.343 C11.633,7.807 11.554,8.267 11.416,8.713 C11.280,9.153 11.075,9.559 10.801,9.931 C10.524,10.308 10.192,10.628 9.808,10.893 C8.432,11.845 6.589,11.850 5.197,10.903 C4.490,10.422 3.975,9.781 3.668,8.982 C3.287,7.987 3.300,6.989 3.684,5.983 C2.940,5.983 2.212,5.983 1.462,5.983 ZM10.128,7.507 C10.136,6.078 8.961,4.883 7.540,4.873 C6.072,4.863 4.866,6.028 4.856,7.466 C4.846,8.934 6.011,10.131 7.457,10.141 C8.942,10.151 10.121,8.989 10.128,7.507 ZM13.249,1.748 C12.405,1.748 11.571,1.748 10.727,1.748 C10.727,2.592 10.727,3.420 10.727,4.268 C11.575,4.268 12.408,4.268 13.249,4.268 "/>
</svg>