<svg xmlns="http://www.w3.org/2000/svg" xmlns:xlink="http://www.w3.org/1999/xlink" width="21px" height="13px">
    <path d="M2.033,0.713 C2.418,0.713 2.804,0.724 3.189,0.709 C3.572,0.695 3.847,0.873 4.051,1.182 C4.329,1.603 4.600,2.029 4.863,2.460 C5.444,3.410 5.981,4.389 6.593,5.320 C6.817,5.662 7.047,6.000 7.348,6.277 C7.670,6.574 7.895,6.523 8.063,6.111 C8.263,5.621 8.305,5.095 8.347,4.574 C8.408,3.812 8.400,3.047 8.393,2.284 C8.388,1.717 8.159,1.481 7.608,1.470 C7.463,1.467 7.318,1.476 7.172,1.476 C7.117,1.475 7.044,1.501 7.014,1.436 C6.978,1.360 7.046,1.311 7.089,1.266 C7.694,0.636 8.412,0.218 9.261,0.057 C9.808,-0.046 10.363,0.026 10.915,0.010 C11.176,0.002 11.438,0.008 11.700,0.009 C12.134,0.009 12.384,0.196 12.529,0.624 C12.683,1.080 12.670,1.555 12.672,2.024 C12.676,3.079 12.557,4.134 12.657,5.188 C12.687,5.502 12.729,5.815 12.859,6.104 C13.066,6.562 13.486,6.609 13.790,6.209 C13.925,6.030 14.018,5.825 14.101,5.617 C14.783,3.903 15.714,2.333 16.720,0.806 C16.899,0.532 17.172,0.484 17.445,0.469 C18.503,0.413 19.531,0.589 20.532,0.939 C20.593,0.960 20.653,0.990 20.711,1.020 C20.977,1.155 21.029,1.266 20.955,1.559 C20.825,2.074 20.561,2.523 20.299,2.973 C19.662,4.067 18.889,5.063 18.171,6.099 C18.023,6.312 17.883,6.533 17.759,6.761 C17.472,7.289 17.506,7.492 17.975,7.845 C18.512,8.250 18.994,8.713 19.446,9.213 C19.916,9.734 20.388,10.253 20.765,10.855 C21.180,11.519 20.968,12.176 20.648,12.513 C20.361,12.815 20.001,12.976 19.593,12.982 C18.786,12.993 17.979,12.984 17.172,12.986 C16.951,12.986 16.753,12.922 16.591,12.769 C16.366,12.556 16.145,12.339 15.929,12.118 C15.428,11.606 14.929,11.092 14.366,10.650 C14.251,10.560 14.129,10.478 14.008,10.394 C13.600,10.112 13.175,10.005 12.721,10.278 C12.236,10.569 11.936,10.987 11.918,11.579 C11.909,11.864 11.912,12.149 11.828,12.424 C11.704,12.831 11.505,12.979 11.097,12.987 C10.251,13.002 9.412,12.966 8.597,12.696 C7.550,12.348 6.668,11.723 5.866,10.971 C3.622,8.870 1.967,6.344 0.808,3.466 C0.568,2.871 0.326,2.278 0.092,1.681 C-0.125,1.130 0.042,0.813 0.617,0.765 C1.086,0.726 1.561,0.757 2.033,0.757 C2.033,0.742 2.033,0.727 2.033,0.713 Z"/>
</svg>