<svg xmlns="http://www.w3.org/2000/svg" xmlns:xlink="http://www.w3.org/1999/xlink" width="19px" height="16px">
    <path d="M0.000,7.538 C0.000,7.427 0.000,7.317 0.000,7.207 C0.260,6.813 0.674,6.655 1.087,6.496 C4.599,5.139 8.110,3.783 11.623,2.428 C13.723,1.618 15.823,0.812 17.924,0.003 C18.247,0.003 18.571,0.008 18.894,0.000 C18.983,-0.001 19.001,0.018 19.000,0.107 C18.994,0.528 18.997,0.949 18.997,1.369 C18.975,1.456 18.950,1.542 18.932,1.630 C17.993,6.067 17.055,10.504 16.117,14.941 C16.070,15.165 16.005,15.383 15.886,15.580 C15.674,15.932 15.350,16.066 14.951,15.969 C14.699,15.907 14.481,15.782 14.274,15.629 C12.957,14.653 11.636,13.681 10.321,12.701 C10.178,12.594 10.091,12.593 9.959,12.723 C9.301,13.370 8.632,14.007 7.968,14.649 C7.818,14.793 7.657,14.920 7.451,14.977 C7.183,15.051 7.127,15.010 7.133,14.740 C7.134,14.671 7.138,14.602 7.143,14.533 C7.235,13.268 7.330,12.004 7.416,10.739 C7.426,10.589 7.473,10.481 7.583,10.381 C9.633,8.528 11.680,6.673 13.728,4.818 C14.311,4.291 14.894,3.765 15.474,3.235 C15.551,3.165 15.679,3.092 15.612,2.966 C15.541,2.832 15.403,2.895 15.294,2.922 C15.118,2.965 14.972,3.074 14.821,3.170 C11.746,5.110 8.665,7.043 5.603,9.004 C5.175,9.279 4.819,9.343 4.335,9.175 C3.153,8.764 1.949,8.415 0.755,8.039 C0.456,7.945 0.167,7.833 0.000,7.538 Z"/>
</svg>