<svg xmlns="http://www.w3.org/2000/svg" xmlns:xlink="http://www.w3.org/1999/xlink" width="31px" height="29px">
    <path d="M28.384,28.989 C27.285,28.993 27.277,28.984 27.276,27.833 C27.274,23.071 27.277,18.309 27.273,13.548 C27.273,12.626 27.222,12.577 26.337,12.576 C19.114,12.575 11.891,12.575 4.667,12.576 C3.782,12.577 3.731,12.626 3.731,13.548 C3.728,18.191 3.729,22.833 3.729,27.475 C3.729,27.737 3.719,28.000 3.725,28.261 C3.737,28.757 3.545,29.008 3.033,28.993 C2.025,28.965 1.016,28.967 0.008,28.957 C0.008,22.284 0.008,15.611 0.008,8.938 C0.273,8.751 0.527,8.545 0.805,8.382 C5.439,5.671 10.080,2.973 14.707,0.249 C15.273,-0.085 15.732,-0.087 16.298,0.248 C19.563,2.183 22.851,4.076 26.120,6.006 C27.753,6.969 29.441,7.836 30.996,8.938 C30.996,15.611 30.996,22.284 30.996,28.957 C30.125,28.969 29.255,28.987 28.384,28.989 ZM9.517,8.694 C8.831,8.710 8.144,8.710 7.457,8.695 C6.938,8.683 6.787,8.959 6.792,9.451 C6.796,9.915 6.953,10.175 7.429,10.165 C7.772,10.158 8.116,10.164 8.459,10.165 C8.802,10.165 9.146,10.154 9.489,10.167 C9.981,10.186 10.193,9.950 10.196,9.441 C10.199,8.945 10.028,8.681 9.517,8.694 ZM16.540,8.695 C15.877,8.709 15.212,8.713 14.549,8.692 C14.034,8.676 13.794,8.879 13.795,9.439 C13.796,10.011 14.066,10.195 14.567,10.168 C14.864,10.153 15.162,10.165 15.460,10.164 C15.826,10.164 16.192,10.157 16.558,10.165 C17.030,10.175 17.201,9.921 17.206,9.456 C17.210,8.969 17.060,8.684 16.540,8.695 ZM23.424,8.693 C23.105,8.713 22.783,8.697 22.463,8.698 C22.142,8.698 21.821,8.710 21.502,8.695 C21.000,8.670 20.803,8.915 20.807,9.424 C20.812,9.922 20.996,10.178 21.499,10.168 C22.140,10.154 22.782,10.154 23.422,10.169 C23.902,10.181 24.207,10.063 24.217,9.466 C24.226,8.859 23.963,8.659 23.424,8.693 ZM6.207,22.759 C9.305,22.752 12.402,22.754 15.499,22.754 C18.528,22.754 21.556,22.753 24.585,22.754 C25.615,22.755 25.646,22.789 25.649,23.886 C25.649,24.077 25.641,24.267 25.640,24.458 C25.639,24.898 25.426,25.114 25.003,25.115 C24.820,25.115 24.636,25.124 24.453,25.124 C18.488,25.124 12.522,25.127 6.557,25.116 C6.170,25.116 5.629,25.311 5.451,24.804 C5.249,24.226 5.263,23.574 5.470,22.982 C5.586,22.649 5.946,22.759 6.207,22.759 ZM24.729,21.142 C21.655,21.150 18.581,21.147 15.507,21.147 C12.478,21.147 9.450,21.148 6.422,21.147 C5.389,21.146 5.359,21.111 5.356,20.013 C5.355,19.822 5.363,19.632 5.364,19.441 C5.365,19.001 5.578,18.785 6.001,18.785 C6.161,18.785 6.322,18.776 6.482,18.776 C12.493,18.776 18.503,18.774 24.513,18.783 C24.881,18.783 25.392,18.610 25.553,19.091 C25.749,19.673 25.748,20.324 25.532,20.912 C25.402,21.267 25.011,21.141 24.729,21.142 ZM24.999,17.196 C24.357,17.214 23.715,17.217 23.073,17.218 C20.549,17.220 18.026,17.219 15.503,17.218 C12.497,17.218 9.492,17.224 6.487,17.210 C6.120,17.208 5.604,17.367 5.448,16.894 C5.258,16.313 5.281,15.673 5.463,15.070 C5.518,14.888 5.710,14.865 5.869,14.853 C6.166,14.830 6.464,14.815 6.762,14.815 C12.588,14.813 18.415,14.813 24.242,14.814 C25.607,14.814 25.986,15.363 25.622,16.766 C25.528,17.128 25.282,17.189 24.999,17.196 Z"/>
</svg>