<svg xmlns="http://www.w3.org/2000/svg" xmlns:xlink="http://www.w3.org/1999/xlink" width="27px" height="40px">
    <path d="M25.542,11.956 C25.074,12.734 25.080,13.519 25.550,14.295 C25.797,14.702 26.064,15.095 26.312,15.500 C26.811,16.317 26.618,17.013 25.778,17.456 C25.396,17.657 25.015,17.862 24.632,18.063 C23.728,18.538 23.291,19.349 23.404,20.382 C23.456,20.859 23.465,21.337 23.458,21.814 C23.448,22.499 22.974,22.983 22.305,22.994 C21.837,23.001 21.369,22.992 20.902,22.939 C19.890,22.823 19.094,23.269 18.629,24.191 C18.409,24.628 18.193,25.067 17.963,25.498 C17.598,26.182 16.912,26.380 16.252,25.982 C15.806,25.712 15.379,25.408 14.938,25.130 C14.178,24.650 13.409,24.643 12.646,25.121 C12.215,25.391 11.797,25.686 11.365,25.954 C10.669,26.386 9.986,26.200 9.598,25.477 C9.368,25.046 9.153,24.606 8.929,24.172 C8.463,23.266 7.676,22.827 6.682,22.938 C6.215,22.990 5.747,22.999 5.279,22.994 C4.588,22.988 4.118,22.501 4.113,21.791 C4.109,21.313 4.115,20.836 4.168,20.359 C4.279,19.356 3.832,18.533 2.949,18.069 C2.533,17.850 2.116,17.633 1.703,17.407 C0.972,17.008 0.785,16.306 1.219,15.580 C1.470,15.161 1.740,14.754 1.995,14.338 C2.492,13.524 2.500,12.708 1.993,11.895 C1.734,11.480 1.468,11.072 1.216,10.653 C0.784,9.932 0.975,9.231 1.709,8.830 C2.133,8.598 2.562,8.376 2.987,8.146 C3.831,7.691 4.276,6.870 4.170,5.911 C4.119,5.446 4.114,4.983 4.112,4.518 C4.108,3.715 4.574,3.244 5.361,3.242 C5.512,3.241 5.664,3.242 5.816,3.242 C5.817,3.239 5.817,3.236 5.817,3.233 C6.107,3.256 6.398,3.273 6.687,3.305 C7.648,3.409 8.462,2.971 8.914,2.095 C9.145,1.649 9.365,1.198 9.601,0.756 C9.976,0.051 10.664,-0.144 11.337,0.269 C11.761,0.529 12.171,0.810 12.587,1.081 C13.384,1.599 14.183,1.591 14.980,1.082 C15.388,0.822 15.786,0.547 16.196,0.290 C16.903,-0.153 17.596,0.041 17.986,0.785 C18.206,1.207 18.420,1.632 18.635,2.057 C19.096,2.972 19.908,3.419 20.915,3.297 C21.382,3.241 21.850,3.238 22.318,3.245 C22.970,3.255 23.449,3.735 23.457,4.397 C23.462,4.861 23.451,5.328 23.406,5.790 C23.299,6.880 23.702,7.678 24.645,8.181 C25.049,8.396 25.455,8.606 25.856,8.827 C26.609,9.242 26.790,9.933 26.340,10.681 C26.081,11.111 25.801,11.526 25.542,11.956 ZM13.760,4.769 C9.270,4.853 5.671,8.385 5.623,13.028 C5.575,17.706 9.147,21.419 13.735,21.453 C18.256,21.485 21.913,17.883 21.948,13.171 C21.983,8.538 18.417,4.840 13.760,4.769 ZM13.746,19.662 C10.215,19.658 7.371,16.732 7.376,13.109 C7.381,9.453 10.236,6.570 13.843,6.576 C17.366,6.582 20.197,9.511 20.194,13.149 C20.191,16.775 17.330,19.666 13.746,19.662 ZM4.151,31.530 C5.061,29.440 5.973,27.351 6.885,25.262 C6.926,25.168 6.967,25.074 7.010,24.980 C7.130,24.718 7.255,24.754 7.372,24.979 C7.604,25.424 7.826,25.874 8.061,26.317 C8.936,27.966 10.740,28.450 12.307,27.456 C12.662,27.231 13.020,27.009 13.359,26.762 C13.644,26.554 13.891,26.530 14.186,26.750 C14.533,27.009 14.908,27.228 15.272,27.462 C16.814,28.453 18.672,27.949 19.517,26.309 C19.729,25.897 19.935,25.482 20.149,25.071 C20.206,24.962 20.237,24.798 20.391,24.807 C20.545,24.815 20.560,24.983 20.608,25.094 C21.580,27.312 22.548,29.530 23.515,31.749 C24.153,33.213 24.790,34.678 25.427,36.142 C25.463,36.224 25.501,36.307 25.530,36.392 C25.600,36.593 25.645,36.804 25.494,36.979 C25.327,37.174 25.099,37.141 24.893,37.064 C24.110,36.767 23.330,36.464 22.551,36.154 C21.568,35.763 21.032,35.996 20.645,37.001 C20.367,37.722 20.098,38.447 19.824,39.170 C19.787,39.267 19.753,39.365 19.706,39.456 C19.617,39.631 19.513,39.803 19.296,39.818 C19.059,39.834 18.919,39.668 18.830,39.478 C18.570,38.918 18.321,38.352 18.074,37.786 C16.705,34.646 15.338,31.505 13.967,28.366 C13.924,28.266 13.911,28.136 13.778,28.091 C13.643,28.171 13.627,28.323 13.572,28.448 C12.001,32.047 10.431,35.647 8.860,39.247 C8.829,39.318 8.797,39.389 8.758,39.455 C8.652,39.634 8.538,39.818 8.303,39.818 C8.046,39.817 7.926,39.618 7.846,39.411 C7.514,38.559 7.195,37.701 6.866,36.848 C6.569,36.076 5.987,35.796 5.226,36.079 C4.489,36.352 3.760,36.650 3.028,36.936 C2.945,36.969 2.863,37.004 2.779,37.031 C2.548,37.106 2.300,37.205 2.099,37.000 C1.883,36.780 1.983,36.516 2.086,36.277 C2.771,34.693 3.461,33.111 4.151,31.530 Z"/>
</svg>