<svg xmlns="http://www.w3.org/2000/svg" xmlns:xlink="http://www.w3.org/1999/xlink" width="39px" height="22px">
    <path d="M38.891,16.603 C38.889,17.039 38.938,17.494 38.607,17.873 C38.527,17.964 38.577,18.168 38.564,18.320 C38.532,18.706 38.344,18.944 37.985,18.954 C37.240,18.975 36.494,18.960 35.751,18.960 C35.537,16.649 33.432,15.400 31.740,15.508 C30.091,15.613 28.753,16.920 28.303,19.029 C27.401,19.029 26.493,19.029 25.551,19.029 C25.551,14.605 25.551,10.182 25.551,5.648 C26.098,5.742 26.624,5.786 27.124,5.925 C28.713,6.369 30.051,7.280 31.348,8.274 C32.857,9.432 34.409,10.532 35.917,11.690 C37.102,12.599 38.002,13.732 38.385,15.222 C38.404,15.295 38.425,15.399 38.477,15.426 C38.984,15.690 38.893,16.174 38.891,16.603 ZM32.389,10.569 C32.278,10.358 32.116,10.170 31.955,9.992 C30.964,8.901 29.828,7.987 28.551,7.268 C27.972,6.942 27.341,6.700 26.714,6.474 C26.269,6.314 26.135,6.441 26.133,6.907 C26.131,8.222 26.140,9.537 26.129,10.852 C26.126,11.200 26.259,11.329 26.601,11.324 C27.511,11.310 28.422,11.319 29.333,11.319 L29.333,11.318 C30.219,11.318 31.105,11.328 31.990,11.310 C32.171,11.306 32.444,11.243 32.503,11.122 C32.570,10.987 32.476,10.736 32.389,10.569 ZM24.589,18.791 C21.018,18.784 17.448,18.786 13.877,18.784 C13.829,18.784 13.780,18.766 13.710,18.752 C13.473,16.861 11.819,15.593 10.285,15.526 C8.416,15.444 6.887,16.613 6.446,18.443 C6.386,18.691 6.305,18.796 6.024,18.793 C4.594,18.776 3.163,18.788 1.732,18.787 C1.190,18.787 0.966,18.641 0.950,18.125 C0.916,17.031 0.940,15.934 0.940,14.810 C8.922,14.810 16.877,14.810 24.859,14.810 C24.871,14.913 24.892,15.011 24.893,15.109 C24.895,16.220 24.890,17.332 24.899,18.443 C24.900,18.675 24.853,18.791 24.589,18.791 ZM24.870,14.140 C24.232,14.140 23.626,14.140 23.020,14.140 C15.636,14.139 8.252,14.139 0.868,14.138 C0.169,14.138 -0.000,13.966 -0.000,13.256 C-0.000,9.129 -0.000,5.001 -0.000,0.873 C-0.000,0.183 0.171,0.009 0.846,0.009 C8.534,0.009 16.222,0.009 23.910,0.009 C23.986,0.010 24.062,0.008 24.138,0.010 C24.699,0.023 24.885,0.206 24.887,0.781 C24.893,2.007 24.891,3.234 24.891,4.461 C24.891,7.553 24.891,10.646 24.890,13.738 C24.890,13.863 24.878,13.987 24.870,14.140 ZM10.024,16.462 C11.547,16.456 12.770,17.694 12.768,19.238 C12.766,20.775 11.570,21.987 10.053,21.991 C8.532,21.994 7.305,20.781 7.296,19.267 C7.287,17.733 8.517,16.468 10.024,16.462 ZM10.039,21.105 C11.065,21.102 11.884,20.267 11.882,19.225 C11.880,18.189 11.047,17.357 10.020,17.364 C9.024,17.370 8.195,18.214 8.191,19.225 C8.187,20.258 9.021,21.107 10.039,21.105 ZM10.062,17.841 C10.813,17.853 11.451,18.496 11.449,19.237 C11.446,20.008 10.803,20.628 10.020,20.615 C9.238,20.603 8.646,20.004 8.650,19.231 C8.655,18.447 9.283,17.828 10.062,17.841 ZM32.049,16.463 C33.544,16.476 34.785,17.733 34.782,19.231 C34.779,20.762 33.540,22.000 32.017,21.994 C30.515,21.988 29.285,20.746 29.286,19.236 C29.287,17.715 30.547,16.450 32.049,16.463 ZM32.055,21.108 C33.055,21.089 33.887,20.244 33.893,19.241 C33.898,18.223 33.044,17.363 32.030,17.365 C31.013,17.368 30.170,18.222 30.174,19.246 C30.178,20.261 31.053,21.127 32.055,21.108 ZM32.057,17.842 C32.820,17.858 33.434,18.483 33.430,19.239 C33.425,20.020 32.797,20.628 32.007,20.617 C31.238,20.606 30.629,19.989 30.632,19.227 C30.636,18.454 31.283,17.825 32.057,17.842 Z"/>
</svg>