<svg xmlns="http://www.w3.org/2000/svg" xmlns:xlink="http://www.w3.org/1999/xlink" width="31px" height="26px">
    <path d="M27.485,22.745 C24.981,25.094 21.886,26.230 18.348,25.961 C13.685,25.606 10.306,23.351 8.378,19.362 C6.157,14.767 7.525,9.566 11.657,6.336 C11.726,6.282 11.794,6.225 11.928,6.115 C10.914,5.908 9.979,5.717 9.042,5.527 C8.885,5.496 8.787,5.590 8.683,5.683 C7.589,6.670 6.141,6.333 5.686,4.979 C5.622,4.789 5.490,4.726 5.329,4.665 C4.099,4.190 2.872,3.706 1.634,3.248 C1.307,3.127 1.176,2.995 1.280,2.649 C1.431,2.149 1.536,1.635 1.637,1.123 C1.688,0.869 1.819,0.784 2.088,0.797 C3.416,0.862 4.745,0.911 6.073,0.978 C6.315,0.991 6.477,0.948 6.627,0.748 C7.066,0.163 7.682,-0.110 8.436,0.039 C9.160,0.183 9.597,0.649 9.760,1.318 C9.818,1.555 9.931,1.658 10.180,1.708 C12.825,2.244 15.472,2.775 18.111,3.336 C19.779,3.691 21.495,3.887 23.100,4.460 C27.321,5.965 29.934,8.823 30.773,12.974 C31.534,16.739 30.363,20.044 27.485,22.745 ZM5.946,1.679 C4.872,1.649 3.798,1.608 2.769,1.572 C2.405,1.479 2.284,1.637 2.247,1.907 C2.226,2.056 2.199,2.209 2.148,2.351 C2.069,2.571 2.173,2.666 2.375,2.743 C3.404,3.133 4.431,3.527 5.454,3.930 C5.647,4.006 5.740,3.999 5.786,3.783 C5.917,3.178 6.064,2.576 6.210,1.973 C6.263,1.756 6.177,1.685 5.946,1.679 ZM19.128,7.142 C14.804,7.118 10.927,10.267 10.879,14.890 C10.833,19.288 14.502,22.625 19.124,22.682 C23.751,22.739 27.421,19.262 27.437,14.894 C27.452,10.566 23.806,7.168 19.128,7.142 ZM19.137,20.799 C16.005,20.827 13.217,18.517 12.913,15.437 C12.565,11.915 15.464,9.224 18.842,9.015 C22.208,8.807 25.245,11.371 25.440,14.574 C25.648,17.989 22.736,20.778 19.137,20.799 ZM19.138,12.346 C17.634,12.330 16.432,13.447 16.415,14.877 C16.398,16.325 17.592,17.466 19.137,17.483 C20.642,17.498 21.871,16.512 21.916,14.861 C21.955,13.454 20.716,12.362 19.138,12.346 ZM1.860,4.644 C2.491,5.544 3.069,6.465 3.246,7.556 C3.417,8.607 2.662,9.340 1.533,9.206 C1.247,9.172 0.954,9.153 0.705,8.996 C0.260,8.716 0.076,8.318 0.114,7.852 C0.102,7.494 0.161,7.173 0.282,6.867 C0.594,6.081 1.026,5.353 1.535,4.664 C1.643,4.518 1.728,4.454 1.860,4.644 ZM1.437,9.766 C1.590,9.547 1.702,9.500 1.876,9.757 C2.442,10.592 2.968,11.442 3.172,12.430 C3.202,12.578 3.209,12.731 3.227,12.881 C3.211,13.667 2.802,14.116 1.978,14.234 C1.630,14.285 1.285,14.252 0.950,14.159 C0.434,14.015 0.100,13.588 0.055,13.037 C0.029,12.709 0.081,12.388 0.186,12.076 C0.467,11.242 0.928,10.493 1.437,9.766 ZM2.167,14.752 C2.254,14.794 2.254,14.859 2.209,14.911 C2.046,15.104 2.184,15.249 2.277,15.411 C2.684,16.118 3.091,16.825 3.153,17.651 C3.230,18.700 2.717,19.215 1.594,19.214 C0.426,19.214 -0.161,18.572 0.039,17.496 C0.214,16.557 0.703,15.746 1.244,14.959 C1.382,14.759 1.956,14.650 2.167,14.752 Z"/>
</svg>