<svg xmlns="http://www.w3.org/2000/svg" xmlns:xlink="http://www.w3.org/1999/xlink" width="20px" height="28px">
    <path d="M9.999,14.432 C7.505,14.432 5.480,12.416 5.480,9.929 C5.480,7.439 7.505,5.424 9.999,5.424 C12.494,5.424 14.518,7.440 14.518,9.929 C14.518,12.415 12.494,14.432 9.999,14.432 M9.999,-0.004 C4.475,-0.004 -0.003,4.458 -0.003,9.965 C-0.003,15.166 4.527,21.874 7.552,25.141 C8.682,26.359 9.998,28.002 9.998,28.002 C9.998,28.002 11.412,26.350 12.625,25.095 C15.647,21.965 20.000,15.681 20.000,9.965 C20.000,4.458 15.522,-0.004 9.999,-0.004 "/>
</svg>