<svg xmlns="http://www.w3.org/2000/svg" xmlns:xlink="http://www.w3.org/1999/xlink" width="34px" height="34px">
    <path d="M33.880,30.839 C33.461,32.415 32.546,33.508 30.901,33.891 C30.477,33.990 30.047,33.999 29.615,33.999 C21.204,33.997 12.794,33.998 4.384,33.997 C4.195,33.997 4.007,34.004 3.819,33.991 C2.571,33.907 1.533,33.419 0.797,32.379 C0.361,31.761 0.149,31.053 -0.000,30.323 C-0.000,21.431 -0.000,12.540 -0.000,3.649 C0.136,3.032 0.291,2.423 0.618,1.873 C1.260,0.790 2.230,0.204 3.453,-0.000 C12.484,-0.000 21.516,-0.000 30.547,-0.000 C31.486,0.171 32.319,0.536 32.957,1.279 C33.547,1.966 33.822,2.785 34.000,3.649 C34.000,12.540 34.000,21.431 34.000,30.323 C33.960,30.495 33.926,30.668 33.880,30.839 ZM27.173,10.642 C26.232,10.641 25.292,10.645 24.351,10.639 C24.043,10.637 23.670,10.761 23.445,10.584 C23.212,10.402 23.328,10.007 23.276,9.707 C22.870,7.386 21.618,5.688 19.436,4.784 C17.208,3.861 15.067,4.150 13.138,5.608 C11.605,6.765 10.804,8.350 10.675,10.264 C10.654,10.566 10.543,10.651 10.251,10.647 C9.112,10.633 7.972,10.641 6.832,10.642 C6.413,10.643 6.402,10.654 6.401,11.074 C6.400,12.831 6.401,14.589 6.401,16.347 C6.401,19.355 6.398,22.362 6.404,25.369 C6.406,26.527 6.948,27.248 7.977,27.489 C8.246,27.552 8.521,27.579 8.800,27.579 C11.533,27.575 14.266,27.577 16.999,27.576 C19.776,27.576 22.553,27.583 25.331,27.573 C26.789,27.568 27.596,26.757 27.597,25.305 C27.602,20.562 27.599,15.819 27.598,11.076 C27.598,10.651 27.588,10.642 27.173,10.642 ZM15.991,23.795 C15.929,23.856 15.855,23.904 15.799,23.948 C15.680,23.937 15.620,23.868 15.558,23.807 C14.174,22.425 12.791,21.040 11.403,19.661 C11.246,19.505 11.263,19.395 11.412,19.251 C11.786,18.890 12.156,18.525 12.514,18.149 C12.692,17.962 12.819,17.965 13.001,18.150 C13.761,18.921 14.539,19.675 15.296,20.450 C15.490,20.648 15.606,20.645 15.799,20.449 C17.105,19.128 18.422,17.819 19.737,16.507 C20.050,16.194 20.053,16.194 20.358,16.496 C20.774,16.908 21.180,17.331 21.604,17.735 C21.786,17.907 21.771,18.028 21.601,18.197 C19.728,20.060 17.861,21.929 15.991,23.795 ZM20.882,10.641 C19.589,10.642 18.295,10.641 17.002,10.641 C17.002,10.642 17.002,10.642 17.002,10.642 C15.719,10.642 14.437,10.644 13.155,10.642 C12.726,10.641 12.705,10.615 12.734,10.188 C12.861,8.256 14.618,6.499 16.566,6.354 C18.932,6.177 20.857,7.686 21.243,10.020 C21.253,10.086 21.262,10.151 21.267,10.218 C21.293,10.606 21.265,10.640 20.882,10.641 Z"/>
</svg>